<svg xmlns="http://www.w3.org/2000/svg" viewBox="0 0 128 128"><path fill="#FF2D20" d="M27.271 53.661l-.006-.017c-.019-.054-.038-.109-.054-.164-.009-.028-.015-.057-.022-.086-.013-.048-.025-.096-.034-.145-.008-.037-.013-.074-.018-.111-.007-.044-.013-.088-.016-.132-.003-.037-.004-.074-.004-.111-.001-.044 0-.088.003-.132.002-.037.007-.074.013-.111.006-.044.015-.088.026-.131.008-.037.018-.073.029-.109.014-.044.03-.087.048-.129.012-.035.026-.07.041-.104.02-.044.041-.086.064-.127.016-.034.033-.067.052-.1.024-.042.051-.082.079-.121.021-.032.042-.064.065-.095.029-.04.061-.078.094-.114.025-.03.05-.06.077-.088.033-.037.069-.071.106-.105.029-.027.057-.054.088-.079.037-.033.077-.063.118-.092.032-.024.063-.048.097-.07.041-.028.085-.053.129-.077.035-.02.069-.04.105-.058.044-.023.09-.043.137-.062.037-.015.074-.03.112-.042.046-.017.094-.03.142-.043.038-.01.076-.02.115-.027.048-.011.098-.018.147-.023.039-.006.077-.012.117-.014.05-.004.1-.004.15-.003.039.001.077.003.116.007.041.004.081.011.122.019l.027.005 24.504 5.249c1.061.227 1.736 1.277 1.508 2.338-.227 1.061-1.277 1.736-2.338 1.508l-20.378-4.365-4.834 20.351 51.048 11.849-6.195-17.158c-.364-1.008.146-2.121 1.154-2.485 1.008-.364 2.121.146 2.485 1.154l8.199 22.712c.007.019.011.038.017.057.015.047.029.094.04.142.008.034.014.068.02.102.008.046.014.091.018.137.003.034.005.068.005.103.001.047-.001.093-.005.14-.003.034-.007.068-.013.102-.008.047-.018.093-.03.139-.009.034-.018.067-.029.1-.015.046-.032.091-.051.135-.013.033-.026.065-.041.096-.02.045-.043.088-.067.131-.018.032-.035.064-.055.094-.026.043-.054.084-.084.124-.022.031-.044.061-.068.09-.031.04-.064.077-.099.114-.027.029-.054.058-.083.085-.035.036-.073.069-.112.101-.03.026-.059.053-.091.077-.039.031-.08.06-.122.088-.033.023-.066.046-.101.066-.042.027-.087.051-.133.074-.036.019-.071.038-.108.054-.045.022-.093.04-.141.058-.038.015-.075.029-.114.04-.047.015-.096.027-.145.038-.039.009-.077.018-.117.024-.049.009-.099.015-.149.018-.039.004-.078.009-.118.01-.05.002-.1.001-.151-.002-.039-.002-.078-.005-.117-.01H27.507c-.064-.01-.127-.023-.19-.039l-.014-.004c-.059-.016-.117-.034-.174-.056l-.02-.008c-.055-.023-.108-.048-.16-.077l-.022-.012c-.052-.03-.102-.062-.149-.098l-.019-.015c-.048-.037-.094-.077-.137-.12l-.014-.014c-.044-.045-.084-.092-.121-.142l-.012-.016a1.827 1.827 0 01-.187-.337l-8.199-22.712a1.927 1.927 0 011.153-2.485 1.927 1.927 0 012.485 1.154l6.195 17.158 4.834-20.351-20.378-4.365c-1.061-.228-1.736-1.277-1.509-2.338l6.515-27.432c.025-.104.056-.205.092-.303zM122.252 59.197l-28.525 16.97c-.344.205-.725.303-1.1.303-.703 0-1.386-.361-1.77-1.008-.588-.99-.262-2.282.728-2.87l25.054-14.903-13.398-8.016-28.34 16.86a2.082 2.082 0 01-1.1.303c-.703 0-1.386-.361-1.77-1.008-.588-.99-.262-2.282.728-2.87l28.34-16.86-5.893-3.527-28.34 16.86a2.082 2.082 0 01-1.1.303c-.703 0-1.387-.361-1.77-1.008-.588-.99-.262-2.282.728-2.87l25.054-14.903L80.685 37.1l-28.34 16.86a2.082 2.082 0 01-1.1.303c-.703 0-1.387-.361-1.77-1.008-.588-.99-.262-2.282.728-2.87l28.34-16.86-2.767-1.656c-.501-.3-.838-.793-.936-1.368a2.087 2.087 0 01.308-1.572c.3-.501.793-.838 1.368-.936a2.087 2.087 0 011.572.308l37.398 22.382c.501.3.838.793.936 1.368s-.008 1.165-.308 1.572l-.028.042a6.27 6.27 0 01-.008.011l-28.525 16.97a2.082 2.082 0 01-1.1.303c-.703 0-1.387-.361-1.77-1.008-.588-.99-.262-2.282.728-2.87l25.054-14.903-3.472-2.078-25.054 14.903c-.344.205-.725.303-1.1.303-.703 0-1.387-.361-1.77-1.008-.588-.99-.262-2.282.728-2.87l25.054-14.903-3.471-2.078z"/></svg>
