<svg xmlns="http://www.w3.org/2000/svg" viewBox="0 0 128 128"><path fill="#6181B6" d="M64 33.039C30.26 33.039 2.906 46.901 2.906 64S30.26 94.961 64 94.961 125.094 81.099 125.094 64 97.74 33.039 64 33.039zM48.103 70.032c-1.458 1.364-3.077 1.927-4.86 2.507-1.783.581-4.052.461-6.811.461h-6.253l-1.733 10h-7.301l6.515-34H41.7c4.224 0 7.305 1.215 9.242 3.432 1.937 2.217 2.519 5.364 1.747 9.337-.319 1.637-.856 3.159-1.614 4.515a15.118 15.118 0 01-2.972 3.748zM69.414 73l2.881-14.42c.328-1.688.132-2.913-.587-3.676-.719-.764-2.016-1.145-3.891-1.145h-6.985l-3.768 19.241h-7.4l6.515-34h7.332l-1.228 6.412h7.239c3.817 0 6.554.955 8.213 2.913 1.659 1.958 2.095 4.871 1.309 8.693l-3.126 16.002h-7.504zm31.793-17.241c-.319 1.637-.856 3.133-1.614 4.489a15.118 15.118 0 01-2.972 3.748c-1.458 1.364-3.077 1.927-4.86 2.507-1.783.581-4.052.461-6.812.461h-6.253l-1.732 10h-7.301l6.514-34h14.041c4.224 0 7.305 1.215 9.243 3.432 1.936 2.217 2.518 5.364 1.746 9.363zM42.984 53.76h-5.867l-2.7 13.68h5.2c2.776 0 4.658-.453 5.931-1.364 1.272-.911 2.151-2.48 2.632-4.702.483-2.235.293-3.808-.571-4.702-.864-.895-2.33-1.912-4.625-1.912zm54.133 0h-5.867l-2.7 13.68h5.2c2.776 0 4.658-.453 5.931-1.364 1.272-.911 2.151-2.48 2.632-4.702.484-2.235.294-3.808-.57-4.702-.865-.895-2.331-1.912-4.626-1.912z"/></svg>
